{
  "asset": {
    "generator": "Khronos glTF Blender I/O v3.5.30",
    "version": "2.0"
  },
  "scene": 0,
  "scenes": [
    {
      "name": "Scene",
      "nodes": [
        0
      ]
    }
  ],
  "nodes": [
    {
      "mesh": 0,
      "name": "coast_land_rocks_03"
    }
  ],
  "materials": [
    {
      "doubleSided": true,
      "name": "coast_land_rocks_03",
      "normalTexture": {
        "index": 0
      },
      "pbrMetallicRoughness": {
        "baseColorTexture": {
          "index": 1
        },
        "metallicFactor": 0,
        "metallicRoughnessTexture": {
          "index": 2
        }
      }
    }
  ],
  "meshes": [
    {
      "name": "Plane",
      "primitives": [
        {
          "attributes": {
            "POSITION": 0,
            "TEXCOORD_0": 1,
            "NORMAL": 2
          },
          "indices": 3,
          "material": 0
        }
      ]
    }
  ],
  "textures": [
    {
      "sampler": 0,
      "source": 0
    },
    {
      "sampler": 0,
      "source": 1
    },
    {
      "sampler": 0,
      "source": 2
    }
  ],
  "images": [
    {
      "mimeType": "image/jpeg",
      "name": "coast_land_rocks_03_nor_gl",
      "uri": "textures/coast_land_rocks_03_nor_gl_1k.jpg"
    },
    {
      "mimeType": "image/jpeg",
      "name": "coast_land_rocks_03_diff",
      "uri": "textures/coast_land_rocks_03_diff_1k.jpg"
    },
    {
      "mimeType": "image/jpeg",
      "name": "coast_land_rocks_03_rough",
      "uri": "textures/coast_land_rocks_03_arm_1k.jpg"
    }
  ],
  "accessors": [
    {
      "bufferView": 0,
      "componentType": 5126,
      "count": 563830,
      "max": [
        4.849355220794678,
        1.3734471797943115,
        3.0672457218170166
      ],
      "min": [
        -4.125825881958008,
        -0.15424823760986328,
        -2.5631961822509766
      ],
      "type": "VEC3"
    },
    {
      "bufferView": 1,
      "componentType": 5126,
      "count": 563830,
      "type": "VEC2"
    },
    {
      "bufferView": 2,
      "componentType": 5126,
      "count": 563830,
      "type": "VEC3"
    },
    {
      "bufferView": 3,
      "componentType": 5125,
      "count": 3289965,
      "type": "SCALAR"
    }
  ],
  "bufferViews": [
    {
      "buffer": 0,
      "byteLength": 6765960,
      "byteOffset": 0,
      "target": 34962
    },
    {
      "buffer": 0,
      "byteLength": 4510640,
      "byteOffset": 6765960,
      "target": 34962
    },
    {
      "buffer": 0,
      "byteLength": 6765960,
      "byteOffset": 11276600,
      "target": 34962
    },
    {
      "buffer": 0,
      "byteLength": 13159860,
      "byteOffset": 18042560,
      "target": 34963
    }
  ],
  "samplers": [
    {
      "magFilter": 9729,
      "minFilter": 9987
    }
  ],
  "buffers": [
    {
      "byteLength": 31202420,
      "uri": "coast_land_rocks_03.bin"
    }
  ]
}