{
  "asset": {
    "generator": "Khronos glTF Blender I/O v4.2.57",
    "version": "2.0"
  },
  "scene": 0,
  "scenes": [
    {
      "name": "Scene",
      "nodes": [
        0
      ]
    }
  ],
  "nodes": [
    {
      "mesh": 0,
      "name": "boulder_02"
    }
  ],
  "materials": [
    {
      "doubleSided": true,
      "name": "boulder_02",
      "normalTexture": {
        "index": 0
      },
      "pbrMetallicRoughness": {
        "baseColorTexture": {
          "index": 1
        },
        "metallicFactor": 0,
        "metallicRoughnessTexture": {
          "index": 2
        }
      }
    }
  ],
  "meshes": [
    {
      "name": "boulder_02_5m",
      "primitives": [
        {
          "attributes": {
            "POSITION": 0,
            "NORMAL": 1,
            "TEXCOORD_0": 2
          },
          "indices": 3,
          "material": 0
        }
      ]
    }
  ],
  "textures": [
    {
      "sampler": 0,
      "source": 0
    },
    {
      "sampler": 0,
      "source": 1
    },
    {
      "sampler": 0,
      "source": 2
    }
  ],
  "images": [
    {
      "mimeType": "image/jpeg",
      "name": "boulder_02_nor_gl",
      "uri": "textures/namaqualand_boulder_02_nor_gl_1k.jpg"
    },
    {
      "mimeType": "image/jpeg",
      "name": "boulder_02_diff",
      "uri": "textures/namaqualand_boulder_02_diff_1k.jpg"
    },
    {
      "mimeType": "image/jpeg",
      "name": "boulder_02_rough",
      "uri": "textures/namaqualand_boulder_02_arm_1k.jpg"
    }
  ],
  "accessors": [
    {
      "bufferView": 0,
      "componentType": 5126,
      "count": 53437,
      "max": [
        1.3481357097625732,
        0.8231645822525024,
        0.6255689859390259
      ],
      "min": [
        -1.1840065717697144,
        -0.059473201632499695,
        -0.6086939573287964
      ],
      "type": "VEC3"
    },
    {
      "bufferView": 1,
      "componentType": 5126,
      "count": 53437,
      "type": "VEC3"
    },
    {
      "bufferView": 2,
      "componentType": 5126,
      "count": 53437,
      "type": "VEC2"
    },
    {
      "bufferView": 3,
      "componentType": 5123,
      "count": 293892,
      "type": "SCALAR"
    }
  ],
  "bufferViews": [
    {
      "buffer": 0,
      "byteLength": 641244,
      "byteOffset": 0,
      "target": 34962
    },
    {
      "buffer": 0,
      "byteLength": 641244,
      "byteOffset": 641244,
      "target": 34962
    },
    {
      "buffer": 0,
      "byteLength": 427496,
      "byteOffset": 1282488,
      "target": 34962
    },
    {
      "buffer": 0,
      "byteLength": 587784,
      "byteOffset": 1709984,
      "target": 34963
    }
  ],
  "samplers": [
    {
      "magFilter": 9729,
      "minFilter": 9987
    }
  ],
  "buffers": [
    {
      "byteLength": 2297768,
      "uri": "namaqualand_boulder_02.bin"
    }
  ]
}