{
  "asset": {
    "generator": "Khronos glTF Blender I/O v3.5.30",
    "version": "2.0"
  },
  "scene": 0,
  "scenes": [
    {
      "name": "Scene",
      "nodes": [
        0
      ]
    }
  ],
  "nodes": [
    {
      "mesh": 0,
      "name": "coast_land_rocks_02"
    }
  ],
  "materials": [
    {
      "doubleSided": true,
      "name": "coast_land_rocks_02",
      "normalTexture": {
        "index": 0
      },
      "pbrMetallicRoughness": {
        "baseColorTexture": {
          "index": 1
        },
        "metallicFactor": 0,
        "metallicRoughnessTexture": {
          "index": 2
        }
      }
    }
  ],
  "meshes": [
    {
      "name": "Plane",
      "primitives": [
        {
          "attributes": {
            "POSITION": 0,
            "TEXCOORD_0": 1,
            "NORMAL": 2
          },
          "indices": 3,
          "material": 0
        }
      ]
    }
  ],
  "textures": [
    {
      "sampler": 0,
      "source": 0
    },
    {
      "sampler": 0,
      "source": 1
    },
    {
      "sampler": 0,
      "source": 2
    }
  ],
  "images": [
    {
      "mimeType": "image/jpeg",
      "name": "coast_land_rocks_02_nor_gl",
      "uri": "textures/coast_land_rocks_02_nor_gl_1k.jpg"
    },
    {
      "mimeType": "image/jpeg",
      "name": "coast_land_rocks_02_diff",
      "uri": "textures/coast_land_rocks_02_diff_1k.jpg"
    },
    {
      "mimeType": "image/jpeg",
      "name": "coast_land_rocks_02_rough",
      "uri": "textures/coast_land_rocks_02_arm_1k.jpg"
    }
  ],
  "accessors": [
    {
      "bufferView": 0,
      "componentType": 5126,
      "count": 662707,
      "max": [
        2.4407029151916504,
        1.242978811264038,
        5.456594944000244
      ],
      "min": [
        -2.447930097579956,
        -0.15454919636249542,
        -4.997559547424316
      ],
      "type": "VEC3"
    },
    {
      "bufferView": 1,
      "componentType": 5126,
      "count": 662707,
      "type": "VEC2"
    },
    {
      "bufferView": 2,
      "componentType": 5126,
      "count": 662707,
      "type": "VEC3"
    },
    {
      "bufferView": 3,
      "componentType": 5125,
      "count": 3873438,
      "type": "SCALAR"
    }
  ],
  "bufferViews": [
    {
      "buffer": 0,
      "byteLength": 7952484,
      "byteOffset": 0,
      "target": 34962
    },
    {
      "buffer": 0,
      "byteLength": 5301656,
      "byteOffset": 7952484,
      "target": 34962
    },
    {
      "buffer": 0,
      "byteLength": 7952484,
      "byteOffset": 13254140,
      "target": 34962
    },
    {
      "buffer": 0,
      "byteLength": 15493752,
      "byteOffset": 21206624,
      "target": 34963
    }
  ],
  "samplers": [
    {
      "magFilter": 9729,
      "minFilter": 9987
    }
  ],
  "buffers": [
    {
      "byteLength": 36700376,
      "uri": "coast_land_rocks_02.bin"
    }
  ]
}