{
  "asset": {
    "generator": "Khronos glTF Blender I/O v4.4.56",
    "version": "2.0"
  },
  "extensionsUsed": [
    "KHR_materials_specular",
    "KHR_materials_ior",
    "KHR_texture_transform"
  ],
  "extensionsRequired": [
    "KHR_texture_transform"
  ],
  "scene": 0,
  "scenes": [
    {
      "name": "Scene",
      "nodes": [
        0
      ]
    }
  ],
  "nodes": [
    {
      "mesh": 0,
      "name": "island_tree_01_LOD0"
    }
  ],
  "materials": [
    {
      "doubleSided": true,
      "name": "island_tree_01",
      "normalTexture": {
        "index": 0
      },
      "pbrMetallicRoughness": {
        "baseColorTexture": {
          "index": 1
        },
        "metallicFactor": 0,
        "metallicRoughnessTexture": {
          "index": 2
        }
      }
    },
    {
      "alphaMode": "BLEND",
      "doubleSided": true,
      "name": "island_tree_01_leaves",
      "normalTexture": {
        "index": 3
      },
      "pbrMetallicRoughness": {
        "baseColorTexture": {
          "index": 4
        },
        "metallicFactor": 0,
        "metallicRoughnessTexture": {
          "index": 5
        }
      }
    },
    {
      "doubleSided": true,
      "extensions": {
        "KHR_materials_specular": {
          "specularFactor": 0.4100000262260437
        },
        "KHR_materials_ior": {
          "ior": 1.4500000476837158
        }
      },
      "name": "island_tree_01_branches",
      "normalTexture": {
        "extensions": {
          "KHR_texture_transform": {
            "offset": [
              0,
              -2.4000000953674316
            ],
            "scale": [
              15,
              3.4000000953674316
            ]
          }
        },
        "index": 6,
        "scale": 0.5
      },
      "pbrMetallicRoughness": {
        "baseColorTexture": {
          "extensions": {
            "KHR_texture_transform": {
              "offset": [
                0,
                -2.4000000953674316
              ],
              "scale": [
                15,
                3.4000000953674316
              ]
            }
          },
          "index": 7
        },
        "metallicFactor": 0,
        "metallicRoughnessTexture": {
          "extensions": {
            "KHR_texture_transform": {
              "offset": [
                0,
                -2.4000000953674316
              ],
              "scale": [
                15,
                3.4000000953674316
              ]
            }
          },
          "index": 8
        }
      }
    }
  ],
  "meshes": [
    {
      "name": "island_trees_01_blockout_cleaned",
      "primitives": [
        {
          "attributes": {
            "POSITION": 0,
            "NORMAL": 1,
            "TEXCOORD_0": 2
          },
          "indices": 3,
          "material": 0
        },
        {
          "attributes": {
            "POSITION": 4,
            "NORMAL": 5,
            "TEXCOORD_0": 6
          },
          "indices": 7,
          "material": 1
        },
        {
          "attributes": {
            "POSITION": 8,
            "NORMAL": 9,
            "TEXCOORD_0": 10
          },
          "indices": 11,
          "material": 2
        }
      ]
    }
  ],
  "textures": [
    {
      "sampler": 0,
      "source": 0
    },
    {
      "sampler": 0,
      "source": 1
    },
    {
      "sampler": 0,
      "source": 2
    },
    {
      "sampler": 0,
      "source": 3
    },
    {
      "sampler": 0,
      "source": 4
    },
    {
      "sampler": 0,
      "source": 5
    },
    {
      "sampler": 0,
      "source": 6
    },
    {
      "sampler": 0,
      "source": 7
    },
    {
      "sampler": 0,
      "source": 8
    }
  ],
  "images": [
    {
      "mimeType": "image/jpeg",
      "name": "island_tree_01_nor_gl",
      "uri": "textures/island_tree_01_nor_gl_1k.jpg"
    },
    {
      "mimeType": "image/jpeg",
      "name": "island_tree_01_diff",
      "uri": "textures/island_tree_01_diff_1k.jpg"
    },
    {
      "mimeType": "image/jpeg",
      "name": "island_tree_01_rough",
      "uri": "textures/island_tree_01_arm_1k.jpg"
    },
    {
      "mimeType": "image/jpeg",
      "name": "island_tree_01_leaves_nor_gl",
      "uri": "textures/island_tree_01_leaves_nor_gl_1k.jpg"
    },
    {
      "mimeType": "image/jpeg",
      "name": "island_tree_01_leaves_diff-island_tree_01_leaves_alpha",
      "uri": "textures/island_tree_01_leaves_diff_1k.jpg"
    },
    {
      "mimeType": "image/jpeg",
      "name": "island_tree_01_leaves_rough",
      "uri": "textures/island_tree_01_leaves_arm_1k.jpg"
    },
    {
      "mimeType": "image/jpeg",
      "name": "island_tree_01_branches_nor_gl",
      "uri": "textures/island_tree_01_branches_nor_gl_1k.jpg"
    },
    {
      "mimeType": "image/jpeg",
      "name": "island_tree_01_branches_diff",
      "uri": "textures/island_tree_01_branches_diff_1k.jpg"
    },
    {
      "mimeType": "image/jpeg",
      "name": "island_tree_01_branches_rough",
      "uri": "textures/island_tree_01_branches_arm_1k.jpg"
    }
  ],
  "accessors": [
    {
      "bufferView": 0,
      "componentType": 5126,
      "count": 19345,
      "max": [
        1.7236499786376953,
        3.5607376098632812,
        1.2547868490219116
      ],
      "min": [
        -1.4278439283370972,
        -0.020327899605035782,
        -1.7317125797271729
      ],
      "type": "VEC3"
    },
    {
      "bufferView": 1,
      "componentType": 5126,
      "count": 19345,
      "type": "VEC3"
    },
    {
      "bufferView": 2,
      "componentType": 5126,
      "count": 19345,
      "type": "VEC2"
    },
    {
      "bufferView": 3,
      "componentType": 5123,
      "count": 104361,
      "type": "SCALAR"
    },
    {
      "bufferView": 4,
      "componentType": 5126,
      "count": 927528,
      "max": [
        2.4107038974761963,
        5.0071187019348145,
        2.2341415882110596
      ],
      "min": [
        -2.3444457054138184,
        0.6301747560501099,
        -2.583538055419922
      ],
      "type": "VEC3"
    },
    {
      "bufferView": 5,
      "componentType": 5126,
      "count": 927528,
      "type": "VEC3"
    },
    {
      "bufferView": 6,
      "componentType": 5126,
      "count": 927528,
      "type": "VEC2"
    },
    {
      "bufferView": 7,
      "componentType": 5125,
      "count": 3180096,
      "type": "SCALAR"
    },
    {
      "bufferView": 8,
      "componentType": 5126,
      "count": 357055,
      "max": [
        2.3549556732177734,
        4.951547622680664,
        2.202267646789551
      ],
      "min": [
        -2.3148062229156494,
        0.649992048740387,
        -2.542656898498535
      ],
      "type": "VEC3"
    },
    {
      "bufferView": 9,
      "componentType": 5126,
      "count": 357055,
      "type": "VEC3"
    },
    {
      "bufferView": 10,
      "componentType": 5126,
      "count": 357055,
      "type": "VEC2"
    },
    {
      "bufferView": 11,
      "componentType": 5125,
      "count": 1513752,
      "type": "SCALAR"
    }
  ],
  "bufferViews": [
    {
      "buffer": 0,
      "byteLength": 232140,
      "byteOffset": 0,
      "target": 34962
    },
    {
      "buffer": 0,
      "byteLength": 232140,
      "byteOffset": 232140,
      "target": 34962
    },
    {
      "buffer": 0,
      "byteLength": 154760,
      "byteOffset": 464280,
      "target": 34962
    },
    {
      "buffer": 0,
      "byteLength": 208722,
      "byteOffset": 619040,
      "target": 34963
    },
    {
      "buffer": 0,
      "byteLength": 11130336,
      "byteOffset": 827764,
      "target": 34962
    },
    {
      "buffer": 0,
      "byteLength": 11130336,
      "byteOffset": 11958100,
      "target": 34962
    },
    {
      "buffer": 0,
      "byteLength": 7420224,
      "byteOffset": 23088436,
      "target": 34962
    },
    {
      "buffer": 0,
      "byteLength": 12720384,
      "byteOffset": 30508660,
      "target": 34963
    },
    {
      "buffer": 0,
      "byteLength": 4284660,
      "byteOffset": 43229044,
      "target": 34962
    },
    {
      "buffer": 0,
      "byteLength": 4284660,
      "byteOffset": 47513704,
      "target": 34962
    },
    {
      "buffer": 0,
      "byteLength": 2856440,
      "byteOffset": 51798364,
      "target": 34962
    },
    {
      "buffer": 0,
      "byteLength": 6055008,
      "byteOffset": 54654804,
      "target": 34963
    }
  ],
  "samplers": [
    {
      "magFilter": 9729,
      "minFilter": 9987
    }
  ],
  "buffers": [
    {
      "byteLength": 60709812,
      "uri": "island_tree_01.bin"
    }
  ]
}