{
  "asset": {
    "generator": "Khronos glTF Blender I/O v4.0.44",
    "version": "2.0"
  },
  "scene": 0,
  "scenes": [
    {
      "name": "Scene",
      "nodes": [
        0
      ]
    }
  ],
  "nodes": [
    {
      "mesh": 0,
      "name": "dead_tree_trunk_02"
    }
  ],
  "materials": [
    {
      "doubleSided": true,
      "name": "dead_tree_trunk_02",
      "normalTexture": {
        "index": 0
      },
      "pbrMetallicRoughness": {
        "baseColorTexture": {
          "index": 1
        },
        "metallicFactor": 0,
        "metallicRoughnessTexture": {
          "index": 2
        }
      }
    }
  ],
  "meshes": [
    {
      "name": "fallen_log_5m_PROXY.002",
      "primitives": [
        {
          "attributes": {
            "POSITION": 0,
            "NORMAL": 1,
            "TEXCOORD_0": 2
          },
          "indices": 3,
          "material": 0
        }
      ]
    }
  ],
  "textures": [
    {
      "sampler": 0,
      "source": 0
    },
    {
      "sampler": 0,
      "source": 1
    },
    {
      "sampler": 0,
      "source": 2
    }
  ],
  "images": [
    {
      "mimeType": "image/jpeg",
      "name": "dead_tree_trunk_02_nor_gl",
      "uri": "textures/dead_tree_trunk_02_nor_gl_1k.jpg"
    },
    {
      "mimeType": "image/jpeg",
      "name": "dead_tree_trunk_02_diff",
      "uri": "textures/dead_tree_trunk_02_diff_1k.jpg"
    },
    {
      "mimeType": "image/jpeg",
      "name": "dead_tree_trunk_02_rough",
      "uri": "textures/dead_tree_trunk_02_arm_1k.jpg"
    }
  ],
  "accessors": [
    {
      "bufferView": 0,
      "componentType": 5126,
      "count": 46112,
      "max": [
        2.1269466876983643,
        0.7267211079597473,
        0.5553070902824402
      ],
      "min": [
        -1.9244168996810913,
        -0.3283522427082062,
        -0.500821590423584
      ],
      "type": "VEC3"
    },
    {
      "bufferView": 1,
      "componentType": 5126,
      "count": 46112,
      "type": "VEC3"
    },
    {
      "bufferView": 2,
      "componentType": 5126,
      "count": 46112,
      "type": "VEC2"
    },
    {
      "bufferView": 3,
      "componentType": 5123,
      "count": 249384,
      "type": "SCALAR"
    }
  ],
  "bufferViews": [
    {
      "buffer": 0,
      "byteLength": 553344,
      "byteOffset": 0,
      "target": 34962
    },
    {
      "buffer": 0,
      "byteLength": 553344,
      "byteOffset": 553344,
      "target": 34962
    },
    {
      "buffer": 0,
      "byteLength": 368896,
      "byteOffset": 1106688,
      "target": 34962
    },
    {
      "buffer": 0,
      "byteLength": 498768,
      "byteOffset": 1475584,
      "target": 34963
    }
  ],
  "samplers": [
    {
      "magFilter": 9729,
      "minFilter": 9987
    }
  ],
  "buffers": [
    {
      "byteLength": 1974352,
      "uri": "dead_tree_trunk_02.bin"
    }
  ]
}