{
  "asset": {
    "generator": "Khronos glTF Blender I/O v3.5.30",
    "version": "2.0"
  },
  "scene": 0,
  "scenes": [
    {
      "name": "Scene",
      "nodes": [
        0
      ]
    }
  ],
  "nodes": [
    {
      "mesh": 0,
      "name": "coast_land_rocks_04_LOD0"
    }
  ],
  "materials": [
    {
      "doubleSided": true,
      "name": "coast_land_rocks_04",
      "normalTexture": {
        "index": 0
      },
      "pbrMetallicRoughness": {
        "baseColorTexture": {
          "index": 1
        },
        "metallicFactor": 0,
        "metallicRoughnessTexture": {
          "index": 2
        }
      }
    }
  ],
  "meshes": [
    {
      "name": "Plane",
      "primitives": [
        {
          "attributes": {
            "POSITION": 0,
            "TEXCOORD_0": 1,
            "NORMAL": 2
          },
          "indices": 3,
          "material": 0
        }
      ]
    }
  ],
  "textures": [
    {
      "sampler": 0,
      "source": 0
    },
    {
      "sampler": 0,
      "source": 1
    },
    {
      "sampler": 0,
      "source": 2
    }
  ],
  "images": [
    {
      "mimeType": "image/jpeg",
      "name": "coast_land_rocks_04_nor_gl",
      "uri": "textures/coast_land_rocks_04_nor_gl_1k.jpg"
    },
    {
      "mimeType": "image/jpeg",
      "name": "coast_land_rocks_04_diff",
      "uri": "textures/coast_land_rocks_04_diff_1k.jpg"
    },
    {
      "mimeType": "image/jpeg",
      "name": "coast_land_rocks_04_rough",
      "uri": "textures/coast_land_rocks_04_arm_1k.jpg"
    }
  ],
  "accessors": [
    {
      "bufferView": 0,
      "componentType": 5126,
      "count": 552864,
      "max": [
        5.000979423522949,
        0.782077431678772,
        5.492058753967285
      ],
      "min": [
        -4.962122440338135,
        -0.06393275409936905,
        -6.009357929229736
      ],
      "type": "VEC3"
    },
    {
      "bufferView": 1,
      "componentType": 5126,
      "count": 552864,
      "type": "VEC2"
    },
    {
      "bufferView": 2,
      "componentType": 5126,
      "count": 552864,
      "type": "VEC3"
    },
    {
      "bufferView": 3,
      "componentType": 5125,
      "count": 3260004,
      "type": "SCALAR"
    }
  ],
  "bufferViews": [
    {
      "buffer": 0,
      "byteLength": 6634368,
      "byteOffset": 0,
      "target": 34962
    },
    {
      "buffer": 0,
      "byteLength": 4422912,
      "byteOffset": 6634368,
      "target": 34962
    },
    {
      "buffer": 0,
      "byteLength": 6634368,
      "byteOffset": 11057280,
      "target": 34962
    },
    {
      "buffer": 0,
      "byteLength": 13040016,
      "byteOffset": 17691648,
      "target": 34963
    }
  ],
  "samplers": [
    {
      "magFilter": 9729,
      "minFilter": 9987
    }
  ],
  "buffers": [
    {
      "byteLength": 30731664,
      "uri": "coast_land_rocks_04.bin"
    }
  ]
}